<svg xmlns="http://www.w3.org/2000/svg" width="48" height="48"><path fill="#5F6C6D" d="M47.91 34.592s-1.719-.339-5.416-1.122c-1.684-.354-3.461-.13-4.896.218-.34-1.226-1.182-2.736-3.246-3.627 0 0-1.033 1.81.107 3.5-5.77-4.115-13.734-3.683-20.943 1.622-9.104 6.693-5.164 8.665-13.439 12.18 0 0 5.68.284 9.104-1.998l.789-.017L12.758 48h5.494l-1.805-2.703h13.102L31.973 48h4.418l-1.818-3.138c2.445-.761 5.662-2.562 4.682-5.642 1.969-1.117 5.725-3.054 8.326-3.133l.329-1.495z"/><path fill="none" stroke="#5F6C6D" stroke-linecap="round" stroke-linejoin="round" stroke-miterlimit="10" stroke-width="1.868" d="M33.9 20.313c-1.52 2.537-4.346 2.269-6.1.085-.648-.808-1.553-1.672-.994-2.743.463-.874 2.92-1.31 3.645-.737 2.48 1.961-2.063 6.013-4.209 6.021-4.396.035-6.324-5.865-2.725-8.212 2.301-1.5 4.277-1.23 5.26 1.391.975 2.61-.529 4.673-2.496 6.385-1.826 1.592-4.436 3.538-6.82 2.236-2.316-1.256-3.865-5.846-3.051-8.303.807-2.425 4.34-4.38 6.752-4.613 4.152-.405 6.373 3.749 6.621 7.51.189 2.962-3.111 5.366-5.746 6.542-4.082 1.83-5.252-2.617-4.736-6.086.604-4.037 4.174-7.151 8.1-8.215 5.25-1.433 8.322 2.872 10.707 6.716 1.52 2.447 2.635 3.79 1.105 6.222-2.564 4.057-7.564 3.052-8.217-1.706-.594-4.433 8.756-6.317 9.201-1.618.182 1.902-1.861 3.113-3.326 3.986-3.947 2.322-6.699.662-7.316-3.923-.592-4.405 1.799-9.343 6.184-10.976 3.053-1.131 6.129-.344 7.258 2.909 1.047 3.062-1.885 5.749-4.715 6.734-4.373 1.515-4.973-4.799-5.273-7.884-.27-2.824.184-6.238 3.953-5.771 3.537.435 8.162 7.06 8.602 10.306.432 3.237-3.199 4.273-5.967 4.919-5.408 1.247-8.816-3.281-9.23-8.401-.24-3.087 1.477-7.089 5.396-5.824 4.662 1.513 4.746 8.027 1.74 10.787-3.566 3.255-9.387 4.719-12.912.832-3.193-3.535-5.471-12.653-.75-16.014 3.252-2.308 5.303.507 4.424 3.857-1.041 3.962-8.094 10.532-12.514 10.015-4.461-.524-7.129-6.469-6.424-10.391.773-4.305 5.809-7.676 7.525-1.976 1.635 5.413-1.98 10.619-4.801 14.977-2.723 4.186-5.127 5.059-5.887-.745-.73-5.522 2.729-12.122 9.123-12.169 4.916-.043 7.266 4.899 9.066 8.566 1.482 3.056 3.305 5.789 1.348 8.9-2.41 3.833-8.357 5.998-10.51 1.153-2.459-5.528-.311-10.258 6.215-10.025 5.094.174 6.932 5.179 4.098 9.015-1.643 2.226-4.061 2.903-6.541 3.764"/></svg>