<?xml version="1.0" encoding="utf-8"?>
<!-- Generator: Adobe Illustrator 16.0.0, SVG Export Plug-In . SVG Version: 6.00 Build 0)  -->
<!DOCTYPE svg PUBLIC "-//W3C//DTD SVG 1.1//EN" "http://www.w3.org/Graphics/SVG/1.1/DTD/svg11.dtd">
<svg version="1.1" id="Calque_1" xmlns="http://www.w3.org/2000/svg" xmlns:xlink="http://www.w3.org/1999/xlink" x="0px" y="0px"
	 width="48px" height="48px" viewBox="0 0 48 48" enable-background="new 0 0 48 48" xml:space="preserve">
<path fill="#DA6A81" d="M45.632,10.899C44.373,4.116,38.471-0.459,31.848,0.499c-3.488,0.507-6.52,2.45-8.625,5.199
	c-2.516-2.08-5.801-3.108-9.287-2.604C6.855,4.12,1.635,11.082,2.275,18.643c0.016,0.179,0.037,0.361,0.061,0.544
	c0.105,0.873,0.289,1.711,0.537,2.515c3.15,10.919,17.211,27.232,23.936,26.256c7.389-1.068,19.947-25.404,19.115-35.212
	C45.866,12.045,45.764,11.442,45.632,10.899z"/>
</svg>
