<svg xmlns="http://www.w3.org/2000/svg" width="48" height="48"><circle cx="24.048" cy="24.067" r="24.048" fill="#ACB4B5"/><linearGradient id="hnRbaEa" x1="13.153" x2="34.943" y1="5.195" y2="42.938" gradientUnits="userSpaceOnUse"><stop offset="0" stop-color="#fff"/><stop offset=".473" stop-color="#acb4b5"/></linearGradient><circle cx="24.048" cy="24.067" r="21.787" fill="url(#hnRbaEa)"/><path fill="#1D0E09" d="M24.001 31.047c10.097 0 14.803 2.588 14.998 2.697a.996.996 0 01-.975 1.734c-.077-.041-4.551-2.439-14.023-2.439-9.523 0-14.271 2.498-14.318 2.523a.996.996 0 01-.952-1.748c.207-.113 5.181-2.767 15.27-2.767z"/><radialGradient id="hnRbaEb" cx="30.51" cy="18.286" r="4.313" gradientUnits="userSpaceOnUse"><stop offset=".193" stop-color="#382e29"/><stop offset=".936" stop-color="#010202"/></radialGradient><path fill="url(#hnRbaEb)" d="M30.51 23.66c1.594 0 2.886-2.406 2.886-5.374l-.001-.07a20.99 20.99 0 01-5.163-3.227c-.381.911-.608 2.054-.608 3.296-.001 2.969 1.291 5.375 2.886 5.375z"/><radialGradient id="hnRbaEc" cx="17.407" cy="18.286" r="4.313" gradientUnits="userSpaceOnUse"><stop offset=".193" stop-color="#382e29"/><stop offset=".936" stop-color="#010202"/></radialGradient><path fill="url(#hnRbaEc)" d="M17.406 23.66c1.594 0 2.887-2.406 2.887-5.374 0-1.208-.215-2.323-.576-3.221a21.333 21.333 0 01-5.195 3.17l-.001.051c0 2.968 1.292 5.374 2.885 5.374z"/><g fill="#FFF"><ellipse cx="15.933" cy="19.67" rx=".921" ry="1.729" transform="scale(-1) rotate(13.209 169.894 -137.607)"/><ellipse cx="29.102" cy="19.67" rx=".92" ry="1.729" transform="rotate(-166.78 29.103 19.67)"/></g><g fill="#FFF"><ellipse cx="18.917" cy="21.195" rx=".45" ry=".846" transform="rotate(-166.78 18.917 21.196)"/><ellipse cx="32.021" cy="21.195" rx=".45" ry=".846" transform="scale(-1) rotate(13.239 182.649 -275.947)"/></g></svg>