<svg xmlns="http://www.w3.org/2000/svg" width="48" height="48"><circle cx="24.049" cy="24.067" r="24.048" fill="#C0CC00"/><linearGradient id="feujWBa" x1="13.358" x2="34.739" y1="5.551" y2="42.583" gradientUnits="userSpaceOnUse"><stop offset="0" stop-color="#ebedbe"/><stop offset=".138" stop-color="#dbdf80"/><stop offset=".665" stop-color="#c0cc00"/></linearGradient><circle cx="24.049" cy="24.067" r="21.377" fill="url(#feujWBa)"/><radialGradient id="feujWBb" cx="31.114" cy="17.894" r="4.313" gradientUnits="userSpaceOnUse"><stop offset=".193" stop-color="#382e29"/><stop offset=".936" stop-color="#010202"/></radialGradient><ellipse cx="31.114" cy="17.894" fill="url(#feujWBb)" rx="2.886" ry="5.374"/><radialGradient id="feujWBc" cx="18.011" cy="17.894" r="4.313" gradientUnits="userSpaceOnUse"><stop offset=".193" stop-color="#382e29"/><stop offset=".936" stop-color="#010202"/></radialGradient><ellipse cx="18.011" cy="17.894" fill="url(#feujWBc)" rx="2.886" ry="5.374"/><g fill="#FFF"><ellipse cx="17.022" cy="16.01" rx=".921" ry="1.729" transform="scale(-1) rotate(13.239 137.964 -146.692)"/><ellipse cx="30.191" cy="16.01" rx=".921" ry="1.729" transform="scale(-1) rotate(13.239 137.97 -260.174)"/></g><linearGradient id="feujWBd" x1="8.049" x2="40.536" y1="32.512" y2="32.512" gradientUnits="userSpaceOnUse"><stop offset="0" stop-color="#ebedbe"/><stop offset=".138" stop-color="#dbdf80"/><stop offset=".665" stop-color="#c0cc00"/></linearGradient><path fill="url(#feujWBd)" d="M24.152 35.426c-10.247 0-15.09-2.66-15.291-2.773-.371-.209-.638-.549-.752-.959s-.063-.84.146-1.209c.282-.5.814-.813 1.388-.813.271 0 .54.072.778.205.037.02 4.468 2.365 13.731 2.365 9.292 0 13.992-2.432 14.038-2.455a1.591 1.591 0 011.519 2.799c-.212.115-5.311 2.84-15.557 2.84zM9.643 30.867a.4.4 0 00-.348.203.395.395 0 00.152.541c.19.107 4.768 2.621 14.705 2.621 9.946 0 14.784-2.584 14.985-2.695a.4.4 0 00.158-.539.406.406 0 00-.541-.158c-.047.025-4.926 2.596-14.602 2.596-9.601 0-14.122-2.412-14.31-2.516a.418.418 0 00-.199-.053z"/><path fill="#1D0E09" d="M24.152 34.828c-10.096 0-14.803-2.586-14.998-2.695a.994.994 0 01.975-1.736c.078.043 4.552 2.441 14.023 2.441 9.524 0 14.272-2.498 14.319-2.523a.995.995 0 01.952 1.746c-.207.113-5.181 2.767-15.271 2.767z"/></svg>