<svg xmlns="http://www.w3.org/2000/svg" width="48" height="48"><circle cx="24.049" cy="24.067" r="24.048" fill="#71BF95"/><linearGradient id="GtMita" x1="13.358" x2="34.739" y1="5.551" y2="42.583" gradientUnits="userSpaceOnUse"><stop offset=".117" stop-color="#c6deaf"/><stop offset=".126" stop-color="#c4ddae"/><stop offset=".25" stop-color="#a3d0a3"/><stop offset=".369" stop-color="#8ac79b"/><stop offset=".48" stop-color="#78c196"/><stop offset=".575" stop-color="#71bf95"/></linearGradient><circle cx="24.049" cy="24.067" r="21.377" fill="url(#GtMita)"/><radialGradient id="GtMitb" cx="30.551" cy="19.827" r="7.147" gradientUnits="userSpaceOnUse"><stop offset=".193" stop-color="#382e29"/><stop offset=".936" stop-color="#010202"/></radialGradient><path fill="url(#GtMitb)" d="M25.324 18.746c0 5.376 2.341 9.733 5.227 9.733 2.887 0 5.228-4.356 5.228-9.733 0-5.375-2.341-7.569-5.228-7.569-2.886-.001-5.227 2.194-5.227 7.569z"/><radialGradient id="GtMitc" cx="17.448" cy="19.828" r="3.946" gradientUnits="userSpaceOnUse"><stop offset=".193" stop-color="#382e29"/><stop offset=".936" stop-color="#010202"/></radialGradient><path fill="url(#GtMitc)" d="M14.563 19.23c0 2.968 1.292 5.374 2.886 5.374s2.886-2.406 2.886-5.374c0-2.968-1.292-4.179-2.886-4.179-1.595 0-2.886 1.212-2.886 4.179z"/><path fill="#1D0E09" d="M38.545 33.34H9.27a.994.994 0 110-1.99h29.275a.995.995 0 110 1.99z"/><g fill="#FFF"><ellipse cx="16.229" cy="18.311" rx=".921" ry="1.729" transform="rotate(-166.755 16.23 18.311)"/><ellipse cx="28.465" cy="17.08" rx="1.667" ry="3.132" transform="rotate(-166.755 28.464 17.081)"/></g></svg>