<svg xmlns="http://www.w3.org/2000/svg" width="48" height="48"><ellipse cx="23.869" cy="24.067" fill="#E68C1E" rx="23.869" ry="24.047"/><linearGradient id="hidWiCa" x1="12.994" x2="34.744" y1="5.231" y2="42.903" gradientUnits="userSpaceOnUse"><stop offset=".069" stop-color="#f5c996"/><stop offset=".123" stop-color="#f2bc7e"/><stop offset=".208" stop-color="#eeab5c"/><stop offset=".295" stop-color="#eb9d41"/><stop offset=".383" stop-color="#e8942e"/><stop offset=".471" stop-color="#e78e23"/><stop offset=".564" stop-color="#e68c1e"/></linearGradient><ellipse cx="23.869" cy="24.067" fill="url(#hidWiCa)" rx="21.624" ry="21.787"/><path fill="#1D0E09" d="M13.711 13.546c3.955-1.383 6.76.766 6.878.858.288.226.581.859.653 1.414.073.553-.101.82-.388.595-.046-.035-2.692-2.014-6.401-.716-3.73 1.306-4.658 4.658-4.667 4.691-.092.347-.395.237-.677-.249-.281-.485-.437-1.16-.347-1.51.04-.15.999-3.7 4.949-5.083zM34.283 13.546c-3.953-1.383-6.76.766-6.877.858-.288.226-.582.859-.654 1.414-.072.553.101.82.389.595.046-.035 2.691-2.014 6.401-.716 3.729 1.306 4.657 4.658 4.665 4.691.093.347.396.237.678-.249.282-.485.438-1.16.348-1.51-.04-.15-1-3.7-4.95-5.083z"/><linearGradient id="hidWiCb" x1="40.954" x2="15.66" y1="40.919" y2="26.729" gradientUnits="userSpaceOnUse"><stop offset=".069" stop-color="#f5c996"/><stop offset=".123" stop-color="#f2bc7e"/><stop offset=".208" stop-color="#eeab5c"/><stop offset=".295" stop-color="#eb9d41"/><stop offset=".383" stop-color="#e8942e"/><stop offset=".471" stop-color="#e78e23"/><stop offset=".564" stop-color="#e68c1e"/></linearGradient><path fill="url(#hidWiCb)" d="M41.709 25.34a4.154 4.154 0 00-4.049-.726c-4.058 1.44-8.905 2.202-14.018 2.202-5.112 0-9.96-.762-14.018-2.203a4.157 4.157 0 00-4.05.726 4.223 4.223 0 00-1.468 3.871c1.266 8.447 9.665 14.816 19.536 14.816 9.874 0 18.271-6.37 19.536-14.816a4.223 4.223 0 00-1.469-3.87z"/><path fill="#FFF" d="M40.815 25.778a3.947 3.947 0 00-3.849-.69c-3.856 1.369-8.465 2.094-13.325 2.094s-9.468-.725-13.325-2.094a3.95 3.95 0 00-3.849.69 4.019 4.019 0 00-1.395 3.68c1.202 8.028 9.186 14.083 18.569 14.083 9.384 0 17.368-6.055 18.57-14.084a4.013 4.013 0 00-1.396-3.679z"/><radialGradient id="hidWiCc" cx="397.538" cy="-306.423" r="11.095" gradientTransform="matrix(1.2392 0 0 .3525 -469.33 141.776)" gradientUnits="userSpaceOnUse"><stop offset=".198" stop-color="#7f201d"/><stop offset=".946" stop-color="#260d0c"/></radialGradient><path fill="url(#hidWiCc)" d="M23.292 34.875c-11.214 0-18.283-2.982-18.283-2.982s5.831 3.764 18.283 3.764c13.375 0 18.283-3.764 18.283-3.764s-5.527 2.982-18.283 2.982z"/></svg>