<?xml version="1.0" encoding="UTF-8" standalone="no"?>
<!-- Created with Inkscape (http://www.inkscape.org/) -->
<svg
   xmlns:dc="http://purl.org/dc/elements/1.1/"
   xmlns:cc="http://creativecommons.org/ns#"
   xmlns:rdf="http://www.w3.org/1999/02/22-rdf-syntax-ns#"
   xmlns:svg="http://www.w3.org/2000/svg"
   xmlns="http://www.w3.org/2000/svg"
   xmlns:sodipodi="http://sodipodi.sourceforge.net/DTD/sodipodi-0.dtd"
   xmlns:inkscape="http://www.inkscape.org/namespaces/inkscape"
   width="210mm"
   height="297mm"
   id="svg2390"
   sodipodi:version="0.32"
   inkscape:version="0.46"
   sodipodi:docname="silhouette.svg"
   inkscape:output_extension="org.inkscape.output.svg.inkscape">
  <defs
     id="defs2392">
    <inkscape:perspective
       sodipodi:type="inkscape:persp3d"
       inkscape:vp_x="0 : 526.18109 : 1"
       inkscape:vp_y="0 : 1000 : 0"
       inkscape:vp_z="744.09448 : 526.18109 : 1"
       inkscape:persp3d-origin="372.04724 : 350.78739 : 1"
       id="perspective2398" />
  </defs>
  <sodipodi:namedview
     id="base"
     pagecolor="#ffffff"
     bordercolor="#666666"
     borderopacity="1.0"
     inkscape:pageopacity="0.0"
     inkscape:pageshadow="2"
     inkscape:zoom="11.2"
     inkscape:cx="417.34205"
     inkscape:cy="512.86661"
     inkscape:document-units="px"
     inkscape:current-layer="layer1"
     showgrid="false"
     inkscape:window-width="1563"
     inkscape:window-height="724"
     inkscape:window-x="107"
     inkscape:window-y="159" />
  <metadata
     id="metadata2395">
    <rdf:RDF>
      <cc:Work
         rdf:about="">
        <dc:format>image/svg+xml</dc:format>
        <dc:type
           rdf:resource="http://purl.org/dc/dcmitype/StillImage" />
      </cc:Work>
    </rdf:RDF>
  </metadata>
  <g
     inkscape:label="Calque 1"
     inkscape:groupmode="layer"
     id="layer1">
    <g
       id="g2384"
       transform="matrix(-0.2634771,0,0,0.269991,438.98074,526.90955)"
       style="fill:#f39a26;fill-opacity:1"
       inkscape:export-xdpi="89.514023"
       inkscape:export-ydpi="89.514023"
       inkscape:export-filename="/home/richard/.gvfs/sftp sur joshua/home/richard/apieu/images/femme.png">
      <path
         style="fill:#f39a26;fill-opacity:1"
         d="M 33.507079,71.011454 C 33.15674,70.444594 33.558137,70.276947 34.448062,70.618443 C 36.180479,71.283234 36.497449,72 35.059017,72 C 34.541476,72 33.843104,71.555154 33.507079,71.011454 z"
         id="path2388" />
      <path
         style="fill:#f39a26;fill-opacity:1"
         d="M 35.410598,71.234687 C 34.811427,70.830609 33.756327,67.586069 33.06593,64.024597 C 31.753129,57.252393 29.16208,51.20933 26.692377,49.159659 C 25.488033,48.160142 24.669576,48.857973 21.922485,53.226557 C 20.098633,56.12695 17.232453,60.110641 15.553195,62.079202 C 13.873938,64.047764 12.05,66.39955 11.5,67.305393 C 10.613558,68.765354 10.102548,68.604087 7,65.885264 C 5.075,64.198349 4.2875,63.06994 5.25,63.377688 C 6.2125,63.685436 7,63.51291 7,62.994295 C 7,62.475681 8.3125187,61.372631 9.9167081,60.543072 C 11.81454,59.561665 13.253457,57.718743 14.035854,55.267392 C 14.697195,53.195326 16.374732,49.25 17.763715,46.5 C 19.155568,43.744316 20.43883,39.255684 20.622629,36.5 L 20.956119,31.5 L 16.516481,36.5 C 10.678755,43.074551 10.330938,39.966299 16,31.884495 C 18.200848,28.74697 20,25.002233 20,23.558933 C 20,22.116189 20.650828,19.378112 21.446284,17.474317 C 22.789482,14.259592 22.753844,13.938629 20.946284,12.971252 C 18.742562,11.791856 18.292698,7.1073023 20.2,5.2 C 21.650919,3.7490807 26,3.5991124 26,5 C 26,5.55 26.626855,6 27.393011,6 C 28.159167,6 29.045044,6.675 29.361626,7.5 C 29.699598,8.3807393 29.375096,9 28.575604,9 C 26.207783,9 25.965258,11.942427 28.017479,15.771428 C 29.107866,17.805853 30,21.143372 30,23.188138 C 30,28.031279 31.85647,32 34.121971,32 C 35.393451,32 36.258061,33.244648 37.062907,36.23362 C 38.164377,40.324167 38.100474,40.552751 35.171961,42.997582 L 32.141019,45.527924 L 34.567418,50.013962 C 39.285964,58.737829 42.998432,66.514653 42.999211,67.676758 C 42.999779,68.523853 37.615303,72.146606 36.596362,71.984687 C 36.543363,71.976265 36.009769,71.638765 35.410598,71.234687 z"
         id="path2386" />
    </g>
  </g>
</svg>
